<svg xmlns="http://www.w3.org/2000/svg" width="127.755" height="49.662" viewBox="0 0 127.755 49.662">
  <g id="Group_1640" data-name="Group 1640" transform="translate(-129.741 -43.173)">
    <g id="Logo_Barely_Human_Fix_Extra_" data-name="Logo Barely Human Fix Extra " transform="translate(133.652 44.191)">
      <g id="Group_6" data-name="Group 6">
        <path id="Path_12" data-name="Path 12" d="M156.323,104.13v3.592a3,3,0,0,1-.2,1.217,3.813,3.813,0,0,1,.926,2.492v3.94a3.873,3.873,0,0,1-1.13,2.781,3.915,3.915,0,0,1-2.81,1.158h-15.15V100.22h14.425a3.828,3.828,0,0,1,2.783,1.129,3.783,3.783,0,0,1,1.158,2.781Zm-2.781,20.279h4.288v19.9h-4.288v-7.793H141.81v7.793h-4.288v-19.9h4.288V132.2h11.732Zm11.7,0v15.586h11.27V124.408h4.345V140.2a4.154,4.154,0,0,1-4.114,4.113h-11.7a4.06,4.06,0,0,1-4.086-4.113V124.408Zm29.811,8.024,6.72-8.024h4.431v19.9h-4.315V130.955l-6.837,8.17-6.894-8.141V144.31h-4.287v-19.9h4.431Zm18.627-8.024h11.675a4.055,4.055,0,0,1,4.113,4.085V144.31h-4.318v-6.431h-11.3v6.431h-4.288V128.493a3.9,3.9,0,0,1,1.216-2.9,3.826,3.826,0,0,1,2.9-1.188Zm.174,9.155h11.3v-4.839h-11.3Zm34.328,4.112V124.408h4.345v19.9H248.1l-11.182-13.326V144.31h-4.287v-19.9h4.431ZM142.072,111.662v3.506h10.834v-3.506Zm0-7.329v3.186h10.08v-3.186Zm21.87-4.113h11.212a3.908,3.908,0,0,1,3.94,3.91v15.179h-4.172v-6.17H164.116v6.17H160V104.13a3.776,3.776,0,0,1,1.13-2.781,3.888,3.888,0,0,1,2.808-1.129Zm.174,8.806h10.806v-4.693H164.116Zm37.082-4.868v4.926a4.01,4.01,0,0,1-3.97,3.94h-.174l4.144,4.867v1.419h-4.26l-5.271-6.285-5.476.029c.058,0,.086.03.086.145a.106.106,0,0,1-.086-.029v6.14h-4.086V100.248h15.122a3.959,3.959,0,0,1,3.97,3.91Zm-15.007.175v4.548h10.835v-4.548Zm35.488-4.113v4.113H208.207v3.36H219.07v4.142H208.207v3.333h13.471v4.141H204.035V100.22Zm2.664,19.089V100.19h4.114v14.978h14.976v4.141Zm32.068-19.089h4.954l-8.836,11.964v7.125h-4.142v-7.154l-3.478-4.665-5.359-7.27h4.9l6,7.532Z" transform="translate(-137.522 -100.19)"/>
      </g>
    </g>
    <path id="Path_1209" data-name="Path 1209" d="M101.552,42.743-17.376-2.242" transform="translate(148.001 47.754)" fill="none" stroke="#fff" stroke-width="5"/>
  </g>
</svg>
