<svg xmlns="http://www.w3.org/2000/svg" width="132.571" height="40.767" viewBox="0 0 132.571 40.767">
  <g id="Group_1628" data-name="Group 1628" transform="translate(-43.405 -16.185)">
    <g id="Group_3" data-name="Group 3" transform="translate(43.405 16.185)">
      <g id="Group_1" data-name="Group 1">
        <path id="Path_3" data-name="Path 3" d="M177.477,191.415a.92.92,0,0,0,.6-.109.833.833,0,0,0,.374-.453.788.788,0,0,0-.063-.636.851.851,0,0,0-.509-.4l-.006,0-25.91-7.532-4.774-7.417,28.086,8.179h.006a.933.933,0,0,0,.675-.06.827.827,0,0,0,.426-.479.783.783,0,0,0-.031-.577.85.85,0,0,0-.424-.414l-.007,0-34.559-15.7-5.82-9.044,43.04,19.571.014.006a6.749,6.749,0,0,1,3.35,3.29,6.2,6.2,0,0,1,.271,4.561,6.461,6.461,0,0,1-.481,1.1,6.7,6.7,0,0,1,2.057,2.242,6.2,6.2,0,0,1,.493,5,6.626,6.626,0,0,1-2.956,3.627,7.325,7.325,0,0,1-4.755.941l-16.586-2.357-4.128-6.414Z" transform="translate(-135.535 -156.766)" fill-rule="evenodd"/>
      </g>
    </g>
    <path id="Path_4" data-name="Path 4" d="M248.018,194.528v1.966a1.7,1.7,0,0,1-.114.67,2.032,2.032,0,0,1,.568,1.369v2.17a1.975,1.975,0,0,1-.706,1.522,2.476,2.476,0,0,1-1.713.633h-9.27V192.373h8.832a2.451,2.451,0,0,1,1.7.633,1.975,1.975,0,0,1,.707,1.522Zm-1.7,11.133h2.623v10.927h-2.623v-4.28h-7.19v4.28h-2.623V205.661h2.623v4.28h7.19v-4.28Zm7.157,0v8.56h6.9v-8.56h2.656v8.681a2.058,2.058,0,0,1-.736,1.586,2.556,2.556,0,0,1-1.768.66h-7.173a2.566,2.566,0,0,1-1.777-.653,2.062,2.062,0,0,1-.727-1.593v-8.681Zm18.254,4.416,4.111-4.416h2.724v10.927h-2.639v-7.33l-4.2,4.493-4.212-4.477v7.315H264.9V205.661H267.6l4.128,4.416Zm11.4-4.416h7.156a2.576,2.576,0,0,1,1.785.66,2.057,2.057,0,0,1,.736,1.586v8.681h-2.656v-3.521h-6.9v3.521h-2.622v-8.681a2.061,2.061,0,0,1,.727-1.594,2.564,2.564,0,0,1,1.776-.652Zm.119,5.039h6.9v-2.671h-6.9V210.7Zm21.012,2.246v-7.284h2.656v10.927h-2.707l-6.851-7.315v7.315h-2.623V205.661h2.707l6.818,7.284ZM239.3,198.664v1.923h6.624v-1.923Zm0-4.02v1.747h6.17v-1.747Zm13.378-2.272h6.868a2.472,2.472,0,0,1,1.712.633,1.975,1.975,0,0,1,.707,1.522v8.331h-2.549V199.48h-6.624v3.379h-2.516v-8.331a1.977,1.977,0,0,1,.7-1.529,2.461,2.461,0,0,1,1.7-.626Zm.114,4.835h6.624v-2.563h-6.624v2.563Zm22.7-2.665v2.709a1.963,1.963,0,0,1-.714,1.522,2.481,2.481,0,0,1-1.7.634h-.114l2.533,2.68v.772h-2.6l-3.231-3.452-3.345.015c.033,0,.049.029.049.087a.073.073,0,0,1-.049-.015v3.364H263.8V192.387h9.27a2.48,2.48,0,0,1,1.7.633,1.965,1.965,0,0,1,.714,1.522Zm-9.173.1v2.491h6.624v-2.491Zm21.723-2.272v2.272H279.79v1.835h6.641v2.272H279.79v1.835h8.248v2.272h-10.8V192.373Zm1.624,10.486v-10.5h2.516v8.229h9.173v2.272Zm19.644-10.486-3.653,4.136-3.669-4.136h-3l3.279,4.005,2.127,2.563v3.918h2.533v-3.9l5.423-6.583Z" transform="translate(-136.367 -159.636)" fill-rule="evenodd"/>
  </g>
</svg>
